<svg width="20" height="20" fill="none" xmlns="http://www.w3.org/2000/svg"><path d="M.624 15.672c.764-.77 2.613-1.892 3.51-2.344 1.168-.589 1.264-.637 2.183.045.612.456 1.02.862 1.736.71.717-.153 2.275-1.015 3.639-2.375 1.364-1.36 2.276-2.962 2.43-3.677.153-.714-.26-1.116-.712-1.73-.636-.866-.587-1.01-.044-2.178.424-.909 1.579-2.74 2.35-3.5.827-.816.827-.672 1.36-.45.432.182.848.403 1.241.661.77.512 1.196.936 1.495 1.574.298.638.432 2.134-1.11 4.934-1.541 2.801-2.623 4.233-4.862 6.466-2.239 2.233-3.96 3.433-6.478 4.845-3.113 1.743-4.307 1.403-4.947 1.105-.64-.298-1.067-.72-1.579-1.49a7.65 7.65 0 01-.663-1.24c-.222-.53-.366-.53.451-1.356z" fill="#30689C"/></svg>