<svg width="20" height="20" viewBox="0 0 20 20" fill="none" xmlns="http://www.w3.org/2000/svg">
<path d="M0.624252 15.6718C1.38773 14.9026 3.23682 13.7801 4.13395 13.3277C5.30225 12.7393 5.39841 12.6912 6.3167 13.3734C6.92921 13.8287 7.33644 14.2354 8.05328 14.0825C8.77012 13.9296 10.3279 13.0676 11.6918 11.7081C13.0558 10.3485 13.9678 8.7457 14.1212 8.0313C14.2746 7.31691 13.8611 6.91453 13.4101 6.30061C12.7745 5.43526 12.8226 5.29104 13.3659 4.12282C13.7895 3.2142 14.9448 1.38255 15.7169 0.622969C16.5429 -0.192862 16.5429 -0.0486372 17.0751 0.172507C17.5084 0.354802 17.9241 0.576391 18.317 0.834498C19.0862 1.34553 19.5132 1.77003 19.8117 2.40799C20.1103 3.04594 20.2444 4.54155 18.7026 7.34239C17.1607 10.1432 16.079 11.5754 13.84 13.808C11.601 16.0406 9.87929 17.241 7.3624 18.6525C4.24886 20.3962 3.0546 20.0563 2.41468 19.7582C1.77476 19.4601 1.34831 19.0371 0.836277 18.2679C0.577485 17.8757 0.355386 17.4605 0.172798 17.0276C-0.0488416 16.4973 -0.193075 16.4973 0.624252 15.6718Z" fill="#30689C"/>
</svg>
