<svg width="9" height="13" viewBox="0 0 9 13" fill="none" xmlns="http://www.w3.org/2000/svg">
<path d="M4.5 0C2.01572 0 0 1.87194 0 4.17857C0 7.89286 4.5 13 4.5 13C4.5 13 9 7.89286 9 4.17857C9 1.87194 6.98428 0 4.5 0ZM4.5 6.5C4.14399 6.5 3.79598 6.39108 3.49997 6.18701C3.20397 5.98295 2.97325 5.6929 2.83702 5.35355C2.70078 5.01421 2.66513 4.6408 2.73459 4.28055C2.80404 3.9203 2.97547 3.58938 3.22721 3.32966C3.47894 3.06993 3.79967 2.89306 4.14884 2.8214C4.498 2.74974 4.85992 2.78652 5.18883 2.92708C5.51774 3.06764 5.79886 3.30568 5.99664 3.61108C6.19443 3.91649 6.3 4.27555 6.3 4.64286C6.29948 5.13524 6.10967 5.6073 5.77222 5.95546C5.43476 6.30363 4.97723 6.49946 4.5 6.5Z" fill="white"/>
</svg>
