<svg width="220" height="68" viewBox="0 0 220 68" fill="none" xmlns="http://www.w3.org/2000/svg">
<path d="M114.729 65.8342C113.932 66.7415 112.519 66.7415 111.723 65.8342L96.0261 47.956C94.8914 46.6636 95.8091 44.6365 97.529 44.6365H128.922C130.642 44.6365 131.56 46.6636 130.425 47.956L114.729 65.8342Z" fill="#FFD339"/>
<circle cx="112.806" cy="32.0572" r="25.8062" fill="#FFD339"/>
<path d="M127.344 38.5195C127.216 41.2904 126.469 43.7422 125.102 45.875C123.734 47.9896 121.811 49.6302 119.332 50.7969C116.871 51.9635 114.055 52.5469 110.883 52.5469C105.651 52.5469 101.531 50.8424 98.5234 47.4336C95.5156 44.0247 94.0117 39.2122 94.0117 32.9961V31.0273C94.0117 27.1263 94.6862 23.7174 96.0352 20.8008C97.4023 17.8659 99.362 15.6055 101.914 14.0195C104.466 12.4154 107.419 11.6133 110.773 11.6133C115.604 11.6133 119.487 12.8893 122.422 15.4414C125.357 17.9753 127.025 21.4753 127.426 25.9414H117.855C117.783 23.5169 117.172 21.776 116.023 20.7188C114.875 19.6615 113.125 19.1328 110.773 19.1328C108.385 19.1328 106.635 20.026 105.523 21.8125C104.411 23.599 103.828 26.4518 103.773 30.3711V33.1875C103.773 37.4349 104.302 40.4701 105.359 42.293C106.435 44.1159 108.276 45.0273 110.883 45.0273C113.089 45.0273 114.775 44.5078 115.941 43.4688C117.108 42.4297 117.728 40.7799 117.801 38.5195H127.344Z" fill="#555150"/>
<g filter="url(#filter0_d)">
<path d="M16.8164 12.1875L25.7031 39.8867L34.5625 12.1875H47.1953V52H37.5703V42.7031L38.5 23.6719L28.875 52H22.5312L12.8789 23.6445L13.8086 42.7031V52H4.21094V12.1875H16.8164ZM85.0117 35.1289H69.918V44.6172H87.7461V52H60.3203V12.1875H87.8008V19.5977H69.918V27.9922H85.0117V35.1289ZM130.867 38.5195C130.74 41.2904 129.992 43.7422 128.625 45.875C127.258 47.9896 125.335 49.6302 122.855 50.7969C120.395 51.9635 117.578 52.5469 114.406 52.5469C109.174 52.5469 105.055 50.8424 102.047 47.4336C99.0391 44.0247 97.5352 39.2122 97.5352 32.9961V31.0273C97.5352 27.1263 98.2096 23.7174 99.5586 20.8008C100.926 17.8659 102.885 15.6055 105.438 14.0195C107.99 12.4154 110.943 11.6133 114.297 11.6133C119.128 11.6133 123.01 12.8893 125.945 15.4414C128.88 17.9753 130.548 21.4753 130.949 25.9414H121.379C121.306 23.5169 120.695 21.776 119.547 20.7188C118.398 19.6615 116.648 19.1328 114.297 19.1328C111.909 19.1328 110.159 20.026 109.047 21.8125C107.935 23.599 107.352 26.4518 107.297 30.3711V33.1875C107.297 37.4349 107.826 40.4701 108.883 42.293C109.958 44.1159 111.799 45.0273 114.406 45.0273C116.612 45.0273 118.298 44.5078 119.465 43.4688C120.632 42.4297 121.251 40.7799 121.324 38.5195H130.867ZM172.84 19.5977H160.891V52H151.293V19.5977H139.562V12.1875H172.84V19.5977ZM203.246 44.5625H190.094L187.797 52H177.543L192.145 12.1875H201.168L215.879 52H205.57L203.246 44.5625ZM192.391 37.1523H200.949L196.656 23.3438L192.391 37.1523Z" fill="white"/>
</g>
<defs>
<filter id="filter0_d" x="0.210938" y="11.6133" width="219.668" height="48.9336" filterUnits="userSpaceOnUse" color-interpolation-filters="sRGB">
<feFlood flood-opacity="0" result="BackgroundImageFix"/>
<feColorMatrix in="SourceAlpha" type="matrix" values="0 0 0 0 0 0 0 0 0 0 0 0 0 0 0 0 0 0 127 0" result="hardAlpha"/>
<feOffset dy="4"/>
<feGaussianBlur stdDeviation="2"/>
<feColorMatrix type="matrix" values="0 0 0 0 0 0 0 0 0 0 0 0 0 0 0 0 0 0 0.08 0"/>
<feBlend mode="normal" in2="BackgroundImageFix" result="effect1_dropShadow"/>
<feBlend mode="normal" in="SourceGraphic" in2="effect1_dropShadow" result="shape"/>
</filter>
</defs>
</svg>
