<svg width="8" height="10" viewBox="0 0 8 10" fill="none" xmlns="http://www.w3.org/2000/svg">
<path d="M3.98436 0.7882C2.2122 0.7882 0.774292 2.08246 0.774292 3.67726C0.774292 6.24531 3.98436 9.77638 3.98436 9.77638C3.98436 9.77638 7.19442 6.24531 7.19442 3.67726C7.19442 2.08246 5.75651 0.7882 3.98436 0.7882ZM3.98436 5.28229C3.7304 5.28229 3.48215 5.20699 3.27099 5.0659C3.05983 4.9248 2.89526 4.72427 2.79807 4.48964C2.70089 4.25502 2.67546 3.99684 2.725 3.74777C2.77455 3.49869 2.89684 3.2699 3.07641 3.09032C3.25599 2.91075 3.48478 2.78846 3.73386 2.73891C3.98293 2.68937 4.24111 2.7148 4.47573 2.81198C4.71036 2.90917 4.9109 3.07374 5.05199 3.2849C5.19308 3.49606 5.26838 3.74431 5.26838 3.99827C5.26801 4.3387 5.13261 4.66508 4.89189 4.9058C4.65117 5.14652 4.32479 5.28192 3.98436 5.28229Z" fill="white"/>
</svg>
